<?xml version="1.0" standalone="no"?>
<!DOCTYPE svg PUBLIC "-//W3C//DTD SVG 20010904//EN"
 "http://www.w3.org/TR/2001/REC-SVG-20010904/DTD/svg10.dtd">
<svg version="1.0" xmlns="http://www.w3.org/2000/svg"
 width="500.000000pt" height="500.000000pt" viewBox="0 0 500.000000 500.000000"
 preserveAspectRatio="xMidYMid meet">

<g transform="translate(0.000000,500.000000) scale(0.100000,-0.100000)"
fill="#000000" stroke="none">
<path d="M0 2500 l0 -2500 2500 0 2500 0 0 2500 0 2500 -2500 0 -2500 0 0
-2500z m1390 1185 l0 -55 -190 0 -190 0 0 -70 0 -70 165 0 165 0 0 -55 0 -55
-165 0 -165 0 0 -80 0 -80 190 0 190 0 0 -55 0 -55 -280 0 -280 0 0 315 0 315
280 0 280 0 0 -55z m425 -162 c55 -117 103 -214 105 -217 3 -2 51 93 107 212
l101 217 116 3 116 3 0 -316 0 -315 -91 0 -92 0 7 206 c4 113 9 213 12 222 3
10 -45 -83 -105 -205 l-109 -223 -61 0 c-54 0 -63 3 -70 23 -5 12 -52 110
-104 217 l-95 195 5 -218 6 -218 -89 3 -89 3 -3 300 c-1 165 0 306 3 313 3 9
32 12 117 10 l112 -3 101 -212z m1250 -93 c85 -170 155 -312 155 -315 0 -3
-42 -5 -93 -5 l-93 0 -28 65 -28 65 -147 0 -147 0 -28 -65 -28 -65 -94 0 c-52
0 -94 2 -94 5 0 3 70 145 155 315 l155 310 80 0 80 0 155 -310z m415 -5 l0
-315 -90 0 -90 0 0 315 0 315 90 0 90 0 0 -315z m330 55 l0 -260 180 0 180 0
0 -55 0 -55 -270 0 -270 0 0 315 0 315 90 0 90 0 0 -260z m-967 -591 c108 -35
206 -138 207 -216 0 -22 -3 -23 -105 -23 l-105 0 -14 33 c-27 64 -90 97 -185
97 -158 0 -229 -97 -219 -296 4 -76 10 -100 31 -137 42 -71 83 -91 197 -95 62
-2 109 1 135 10 l40 13 3 67 3 67 -98 3 -98 3 0 60 0 60 210 0 210 0 0 -160 0
-160 -54 -32 c-76 -46 -203 -73 -338 -73 -229 0 -369 72 -441 228 -24 52 -27
68 -26 172 0 93 4 125 22 170 48 121 153 202 302 230 78 15 247 4 323 -21z
m-1400 -8 c71 -23 128 -65 153 -112 18 -36 18 -112 -1 -148 -17 -33 -65 -77
-96 -86 -18 -6 -14 -10 28 -30 169 -78 140 -287 -50 -356 -58 -21 -81 -23
-344 -27 l-283 -3 0 396 0 397 263 -4 c235 -4 269 -7 330 -27z m587 -366 l0
-395 -115 0 -115 0 0 388 c0 214 3 392 7 395 3 4 55 7 115 7 l108 0 0 -395z
m-845 -636 c122 -22 216 -86 260 -174 16 -31 20 -61 20 -135 0 -86 -3 -100
-27 -142 -29 -48 -79 -93 -136 -122 -61 -31 -161 -46 -319 -46 l-153 0 0 315
0 315 148 0 c82 0 175 -5 207 -11z m943 -294 c83 -168 152 -310 152 -315 0 -6
-37 -10 -90 -10 l-91 0 -29 65 -29 65 -146 0 -146 0 -29 -65 -29 -65 -91 0
c-53 0 -90 4 -90 10 0 5 69 147 152 315 l153 305 80 0 80 0 153 -305z m790
248 l3 -53 -130 0 -131 0 0 -260 0 -261 -87 3 -88 3 -3 258 -2 257 -125 0
-125 0 0 48 c0 27 3 52 7 55 4 4 158 6 342 5 l336 -3 3 -52z m575 -258 l157
-315 -95 0 -95 0 -29 65 -30 65 -144 0 -145 0 -31 -65 -30 -65 -90 0 c-54 0
-91 4 -91 10 0 5 69 147 152 315 l153 305 80 0 80 0 158 -315z"/>
<path d="M2791 3478 c-64 -140 -68 -128 43 -128 l94 0 -45 103 c-25 56 -47
104 -49 106 -2 2 -21 -34 -43 -81z"/>
<path d="M1080 2675 l0 -95 98 0 c154 0 212 27 212 97 0 67 -58 93 -212 93
l-98 0 0 -95z"/>
<path d="M1080 2360 l0 -100 120 0 c170 0 210 20 210 104 0 72 -56 96 -222 96
l-108 0 0 -100z"/>
<path d="M1010 1575 l0 -208 80 6 c145 11 200 67 200 202 0 70 -15 117 -47
147 -37 36 -71 47 -159 55 l-74 6 0 -208z"/>
<path d="M1882 1690 c-5 -14 -26 -60 -46 -104 -20 -43 -36 -80 -36 -82 0 -2
43 -4 95 -4 109 0 105 -15 37 130 -37 80 -40 84 -50 60z"/>
<path d="M3208 1608 l-45 -103 90 -3 c49 -1 91 -1 93 1 4 4 -79 193 -88 203
-3 2 -25 -42 -50 -98z"/>
</g>
</svg>
