<svg width="64" height="22" viewBox="0 0 92 32" xmlns="http://www.w3.org/2000/svg"><path d="M65.661 7.575a3.504 3.504 0 0 0 3.27-1.869 3.971 3.971 0 0 0 0-3.737A3.66 3.66 0 0 0 65.661.1a3.737 3.737 0 0 0 0 7.475zM37.007 9.6a25.804 25.804 0 0 1-4.36 7.475V1.813l-7.786 1.558v27.563h7.786V22.37a28.42 28.42 0 0 1 3.426 8.565h9.344a61.84 61.84 0 0 0-4.984-11.056 32.22 32.22 0 0 0 5.45-10.434l-8.876.156zm20.556-.312c-7.007.156-10.59 3.426-10.59 9.655v11.991h7.632v-9.81c0-3.738.467-5.295 4.983-5.451v-6.23a13.19 13.19 0 0 0-2.025-.155zm-45.94 3.27c-.934 0-3.114-.155-3.114-2.18 0-2.491 3.27-2.491 4.36-2.491 2.331.098 4.637.517 6.853 1.245.694.206 1.371.466 2.024.78h.156V3.37h-.156a28.03 28.03 0 0 0-9.966-1.558C3.215 1.813.1 6.797.1 11.157c0 2.492 1.09 8.253 10.9 8.876.78 0 3.115.156 3.115 2.18 0 1.714-1.868 2.648-4.827 2.648a21.958 21.958 0 0 1-8.565-1.713V30a39.54 39.54 0 0 0 10.122 1.09c8.41 0 12.147-4.672 12.147-9.344-.156-5.139-4.36-8.565-11.368-9.188zm50.3 18.376h7.631V9.6h-7.63v21.334zM83.882 3.06v27.875h7.631V1.814l-7.63 1.245zm-11.212 0l7.63-1.401v29.12h-7.63V3.06z" fill="#862165" fill-rule="nonzero"/></svg>
