<svg width="64" height="18" viewBox="0 0 116 32" xmlns="http://www.w3.org/2000/svg"><g fill="#1A5EAB" fill-rule="nonzero"><path d="M15.543.914c2.255.005 4.48.513 6.514 1.486l.914.457-1.257 1.372-2.171-2.172L16 5.257l-2.171-2.4L7.314 8.8l4.229 4.571-1.714 1.486 4.114 4.572-1.714 1.485 5.942 6.515 3.543-3.2L24.8 27.77c-.571.458-1.257.915-1.943 1.372a14.686 14.686 0 0 1-7.428 1.943C7.11 31.054.374 24.319.343 16 .467 7.676 7.218.975 15.543.914z"/><path d="M12.8 14.971l3.657-3.2 3.2 3.543L16 18.63l-3.2-3.658zm2.514 6.286l3.543-3.2 3.314 3.543-3.657 3.2c0-.114-3.2-3.543-3.2-3.543zM10.171 8.914l3.658-3.2 3.2 3.543-3.658 3.2-3.2-3.543zm6.515-1.828l2.743-2.4 2.4 2.743-2.743 2.4-2.4-2.743zM21.6 18.17l2.629-2.4 2.4 2.743-2.629 2.4-2.4-2.743zm2.286 5.486l2.743-2.4 2.4 2.743-2.743 2.4-2.4-2.743zM24.914 11.2l1.829-1.486 1.714 1.715-1.828 1.714-1.715-1.943zM22.63 5.829l1.828-1.486 1.714 1.714-1.828 1.714-1.714-1.942zm4.685 10.742l1.715-1.6 1.714 1.715-1.829 1.714-1.6-1.829zm-8-4l2.629-2.4 2.4 2.743-2.629 2.4-2.4-2.743zM72 10.171a3.291 3.291 0 0 0-2.286-.8c-1.943 0-3.2 1.372-3.2 3.543v9.829h1.943v-9.829c0-1.371.914-1.485 1.257-1.485a1.28 1.28 0 0 1 .915.342c.35.318.522.789.457 1.258v9.828h1.943V13.03c0-1.372.914-1.486 1.257-1.486a1.28 1.28 0 0 1 .914.343c.351.317.522.788.457 1.257v9.828H77.6v-9.828a4.08 4.08 0 0 0-.914-2.629A3.189 3.189 0 0 0 74.4 9.6a2.754 2.754 0 0 0-2.4.571zm14.171 3.772a4.571 4.571 0 0 0-3.2-1.257 4.789 4.789 0 0 0-3.2 1.257 5.383 5.383 0 0 0-1.257 3.771 4.903 4.903 0 0 0 1.257 3.772c.863.82 2.01 1.27 3.2 1.257a4.171 4.171 0 0 0 3.2-1.257 6.286 6.286 0 0 0 0-7.543zm-.8 4.228c.13.986-.16 1.982-.8 2.743a2.183 2.183 0 0 1-1.714.572 2.709 2.709 0 0 1-1.714-.572 3.543 3.543 0 0 1-.8-2.743v-.914c-.13-.986.16-1.981.8-2.743a2.183 2.183 0 0 1 1.714-.571c.62-.012 1.225.19 1.714.571.64.762.93 1.757.8 2.743v.914zm3.429-5.257h1.714v.915c.432-.31.89-.577 1.372-.8a2.903 2.903 0 0 1 1.714-.343c.9-.1 1.794.24 2.4.914.502.701.78 1.538.8 2.4v6.514h-1.829v-6.628c0-1.715-1.028-1.943-1.828-1.943a3.429 3.429 0 0 0-2.4 1.028v7.772h-1.829l-.114-9.829zm16.8 7.886c-.343.114-.8.343-1.257.457-.481.168-.98.283-1.486.343a3.429 3.429 0 0 1-2.286-.8 2.983 2.983 0 0 1-.8-2.171v-.343h6.058v-.457a5.463 5.463 0 0 0-1.029-4 3.543 3.543 0 0 0-2.857-1.258 4.286 4.286 0 0 0-3.086 1.258 5.451 5.451 0 0 0-1.028 3.657 5.04 5.04 0 0 0 1.257 3.771 4.286 4.286 0 0 0 3.543 1.372 5.451 5.451 0 0 0 2.285-.458c.429-.168.848-.36 1.257-.571l-.571-.8zm-5.714-4.114a4.16 4.16 0 0 1 .571-2.172c.393-.39.932-.597 1.486-.571a2 2 0 0 1 1.371.457c.447.543.654 1.244.572 1.943v.457h-4v-.114zm15.885-3.772L112 24.457a4.571 4.571 0 0 1-.914 1.829 2.503 2.503 0 0 1-1.943.8 2.286 2.286 0 0 1-1.486-.457c-.343-.115-.571-.458-.8-.572l.914-1.028.458.457c.342.114.571.343.914.343.39-.006.763-.17 1.028-.458l.572-1.257.114-.8-4.114-10.285h1.943l2.4 6.057c.243.552.434 1.126.571 1.714h.114c.194-.786.462-1.55.8-2.286l1.829-5.6h1.371zM40.23 22.171c.642.53 1.452.814 2.285.8 1.943 0 3.2-1.371 3.2-3.542V9.6h-1.943v9.829c0 1.371-.914 1.485-1.257 1.485a1.04 1.04 0 0 1-.914-.343 1.429 1.429 0 0 1-.457-1.257V9.486H39.2v9.828c0 1.372-.914 1.486-1.257 1.486a.949.949 0 0 1-.8-.343 1.429 1.429 0 0 1-.457-1.257V9.371h-1.943V19.2a4.08 4.08 0 0 0 .914 2.629 3.189 3.189 0 0 0 2.286.914 3.017 3.017 0 0 0 2.286-.572zm14.4-1.371a9.063 9.063 0 0 1-1.029.457c-.49.095-.988.133-1.486.114a3.429 3.429 0 0 1-2.285-.8 3.086 3.086 0 0 1-.572-2.171v-.343h6.057V17.6a5.463 5.463 0 0 0-1.028-4 4.434 4.434 0 0 0-2.857-1.257A3.566 3.566 0 0 0 48.57 13.6a5.451 5.451 0 0 0-1.028 3.657A5.04 5.04 0 0 0 48.8 21.03a4.286 4.286 0 0 0 3.543 1.371 5.451 5.451 0 0 0 2.286-.457c.428-.169.848-.36 1.257-.572l-1.257-.571zm-5.372-4.114c.007-.76.204-1.507.572-2.172.393-.39.932-.597 1.485-.571a2 2 0 0 1 1.372.457c.447.543.653 1.244.571 1.943v.457h-4.114l.114-.114zM63.543 13.6a4.651 4.651 0 0 0-2.743-.914c-.457 0-.914.114-1.257.114-.322.063-.63.18-.914.343V9.37H56.8V21.83a7.6 7.6 0 0 0 3.657 1.028A4.206 4.206 0 0 0 64 21.371a5.851 5.851 0 0 0 .914-3.657 5.269 5.269 0 0 0-1.371-4.114zm-3.086.343a1.874 1.874 0 0 1 1.829.8c.493.782.696 1.712.571 2.628v.915a5.017 5.017 0 0 1-.571 2.743 2.503 2.503 0 0 1-1.829.8c-.343 0-.8-.115-1.257-.115a4.971 4.971 0 0 1-.8-.457v-6.4l2.057-.914z"/></g></svg>
