<svg width="33" height="32" viewBox="0 0 33 32" xmlns="http://www.w3.org/2000/svg"><g fill="none" fill-rule="evenodd"><path fill="#FFF" fill-rule="nonzero" d="M31.079 12.684H1.553l1.026-2.131h27.395"/><path stroke="#0096E6" stroke-width="1.5" d="M31.079 12.684H1.553l1.026-2.131h27.395z"/><path fill="#FFF" fill-rule="nonzero" d="M26.342 10.553L16.316 4.789 6.289 10.553"/><path stroke="#0096E6" stroke-width="1.5" stroke-linecap="round" d="M26.342 10.553L16.316 4.789 6.289 10.553z"/><path fill="#FFF" fill-rule="nonzero" d="M7.395 7.395l-1.027 3.158 5.448-3.158z"/><path stroke="#0096E6" stroke-width="1.5" stroke-linecap="round" d="M7.395 7.395l-1.027 3.158 5.448-3.158z"/><path fill="#FFF" fill-rule="nonzero" d="M20.895 7.395l5.447 3.158-1.026-3.158z"/><path stroke="#0096E6" stroke-width="1.5" stroke-linecap="round" d="M20.895 7.395l5.447 3.158-1.026-3.158z"/><path d="M16.316 4.79l4.579 2.605h3.631c0-3.158-3.631-5.763-8.131-5.763s-8.21 2.605-8.21 5.763h3.71l4.42-2.606z" fill="#D0E8F9" fill-rule="nonzero"/><path d="M16.316 4.79l4.579 2.605h3.631c0-3.158-3.631-5.763-8.131-5.763s-8.21 2.605-8.21 5.763h3.71l4.42-2.606z" stroke="#0096E6" stroke-width="1.5" stroke-linecap="round"/><path fill="#FFF" fill-rule="nonzero" d="M1.079 30.526h30.553v-2.131H1.079"/><path stroke="#0096E6" stroke-width="1.5" stroke-linecap="round" d="M1.079 30.526h30.553v-2.131H1.079z"/><path fill="#FFF" fill-rule="nonzero" d="M1.553 28.474H31v-2.132H1.553"/><path stroke="#0096E6" stroke-width="1.5" stroke-linecap="round" d="M1.553 28.474H31v-2.132H1.553z"/><path d="M6.842 12.684H2.658v1.58a.537.537 0 0 0 .553.552c.236-.08.473.158.473.473v8.448a.537.537 0 0 1-.552.552.537.537 0 0 0-.553.553v1.58h4.263v-1.58a.537.537 0 0 0-.553-.553.537.537 0 0 1-.552-.552v-8.448a.537.537 0 0 1 .552-.552.529.529 0 0 0 .553-.474v-1.579z" fill="#D0E8F9" fill-rule="nonzero"/><path d="M6.842 14.263v-1.579H2.658v1.58a.537.537 0 0 0 .553.552c.236-.08.473.158.473.473v8.448a.537.537 0 0 1-.552.552.537.537 0 0 0-.553.553v1.58h4.263v-1.58a.537.537 0 0 0-.553-.553.537.537 0 0 1-.552-.552v-8.448a.537.537 0 0 1 .552-.552.529.529 0 0 0 .553-.474z" stroke="#0096E6" stroke-width="1.5" stroke-linecap="round"/><path d="M12.605 12.684H8.421v1.58a.537.537 0 0 0 .553.552.537.537 0 0 1 .552.552v8.448a.537.537 0 0 1-.552.552.537.537 0 0 0-.553.553V26.5h4.184v-1.579a.537.537 0 0 0-.552-.553.537.537 0 0 1-.553-.552v-8.527a.537.537 0 0 1 .553-.552.537.537 0 0 0 .552-.553v-1.5z" fill="#D0E8F9" fill-rule="nonzero"/><path d="M12.605 14.263v-1.579H8.421v1.58a.537.537 0 0 0 .553.552.537.537 0 0 1 .552.552v8.448a.537.537 0 0 1-.552.552.537.537 0 0 0-.553.553V26.5h4.184v-1.579a.537.537 0 0 0-.552-.553.537.537 0 0 1-.553-.552v-8.527a.537.537 0 0 1 .553-.552.529.529 0 0 0 .552-.474z" stroke="#0096E6" stroke-width="1.5" stroke-linecap="round"/><path d="M18.447 12.684h-4.184v1.58a.537.537 0 0 0 .553.552.537.537 0 0 1 .552.552v8.448a.537.537 0 0 1-.552.552.537.537 0 0 0-.553.553V26.5h4.184v-1.579a.537.537 0 0 0-.552-.553.537.537 0 0 1-.553-.552v-8.527a.537.537 0 0 1 .553-.552.537.537 0 0 0 .552-.553v-1.5z" fill="#D0E8F9" fill-rule="nonzero"/><path d="M18.447 14.263v-1.579h-4.184v1.58a.537.537 0 0 0 .553.552.537.537 0 0 1 .552.552v8.448a.537.537 0 0 1-.552.552.537.537 0 0 0-.553.553V26.5h4.184v-1.579a.537.537 0 0 0-.552-.553.537.537 0 0 1-.553-.552v-8.527a.537.537 0 0 1 .553-.552.529.529 0 0 0 .552-.474z" stroke="#0096E6" stroke-width="1.5" stroke-linecap="round"/><path d="M24.21 12.684h-4.184v1.58a.537.537 0 0 0 .553.552.537.537 0 0 1 .553.552v8.448a.537.537 0 0 1-.553.552.537.537 0 0 0-.553.553V26.5h4.185v-1.579a.537.537 0 0 0-.553-.553.537.537 0 0 1-.553-.552v-8.527a.537.537 0 0 1 .553-.552.537.537 0 0 0 .553-.553v-1.5z" fill="#D0E8F9" fill-rule="nonzero"/><path d="M24.21 14.263v-1.579h-4.184v1.58a.537.537 0 0 0 .553.552.537.537 0 0 1 .553.552v8.448a.537.537 0 0 1-.553.552.537.537 0 0 0-.553.553V26.5h4.185v-1.579a.537.537 0 0 0-.553-.553.537.537 0 0 1-.553-.552v-8.527a.537.537 0 0 1 .553-.552.529.529 0 0 0 .553-.474z" stroke="#0096E6" stroke-width="1.5" stroke-linecap="round"/><path d="M29.974 12.684h-4.185v1.58a.537.537 0 0 0 .553.552.537.537 0 0 1 .553.552v8.448a.537.537 0 0 1-.553.552.537.537 0 0 0-.553.553V26.5h4.185v-1.579a.537.537 0 0 0-.553-.553.537.537 0 0 1-.553-.552v-8.527a.537.537 0 0 1 .553-.552.537.537 0 0 0 .553-.553v-1.5z" fill="#D0E8F9" fill-rule="nonzero"/><path d="M29.974 14.263v-1.579h-4.185v1.58a.537.537 0 0 0 .553.552.537.537 0 0 1 .553.552v8.448a.537.537 0 0 1-.553.552.537.537 0 0 0-.553.553V26.5h4.185v-1.579a.537.537 0 0 0-.553-.553.537.537 0 0 1-.553-.552v-8.527a.537.537 0 0 1 .553-.552.529.529 0 0 0 .553-.474z" stroke="#0096E6" stroke-width="1.5" stroke-linecap="round"/></g></svg>
